<svg xmlns="http://www.w3.org/2000/svg" xmlns:xlink="http://www.w3.org/1999/xlink" width="124.832" height="40.504" viewBox="0 0 124.832 40.504">
  <defs>
    <clipPath id="clip-path">
      <rect id="Rectangle_29" data-name="Rectangle 29" width="124.832" height="40.504" fill="none"/>
    </clipPath>
  </defs>
  <g id="Group_19" data-name="Group 19" transform="translate(0 0)">
    <path id="Path_31" data-name="Path 31" d="M38.7,42.5H31.53l-1.064,3.252H23.386l7.871-21.516h7.78l7.84,21.516H39.766Zm-1.641-5.075-1.945-5.986-1.945,5.986Z" transform="translate(-14.122 -14.636)" fill="#2771b9"/>
    <path id="Path_32" data-name="Path 32" d="M102.425,45.752l-6.26-9.33v9.33H89.418V24.236h6.747v9.056l6.169-9.056h7.628l-7.415,10.3,7.9,11.214Z" transform="translate(-53.998 -14.636)" fill="#2771b9"/>
    <g id="Group_18" data-name="Group 18" transform="translate(0 0)">
      <g id="Group_17" data-name="Group 17" clip-path="url(#clip-path)">
        <path id="Path_33" data-name="Path 33" d="M144.2,28.956a9.333,9.333,0,0,1,3.692-3.875,11.134,11.134,0,0,1,5.653-1.382,11.5,11.5,0,0,1,5,1.048,9.242,9.242,0,0,1,3.586,2.963,10.738,10.738,0,0,1,1.839,4.467h-7.111a3.857,3.857,0,0,0-1.383-1.656,3.636,3.636,0,0,0-2.051-.593,3.217,3.217,0,0,0-2.689,1.276,5.468,5.468,0,0,0-.988,3.434,5.466,5.466,0,0,0,.988,3.434,3.217,3.217,0,0,0,2.689,1.276,3.636,3.636,0,0,0,2.051-.593,3.85,3.85,0,0,0,1.383-1.656h7.111a10.738,10.738,0,0,1-1.839,4.467,9.242,9.242,0,0,1-3.586,2.963,11.5,11.5,0,0,1-5,1.048A11.126,11.126,0,0,1,147.9,44.2a9.329,9.329,0,0,1-3.692-3.875,12.167,12.167,0,0,1-1.292-5.683,12.169,12.169,0,0,1,1.292-5.683" transform="translate(-86.302 -14.311)" fill="#2771b9"/>
        <path id="Path_34" data-name="Path 34" d="M83.034,31.116A17.1,17.1,0,0,1,69.6,37.639H2.865V13.614A10.761,10.761,0,0,1,13.614,2.865H69.6A17.1,17.1,0,0,1,83.033,9.388h3.5A19.992,19.992,0,0,0,69.6,0H13.614A13.629,13.629,0,0,0,0,13.614V40.5H69.6a19.993,19.993,0,0,0,16.937-9.388Z" transform="translate(0 0)" fill="#2771b9"/>
        <path id="Path_35" data-name="Path 35" d="M215.59,40.865h-1.557l-.268.76h-.637l1.333-3.724h.706l1.333,3.724h-.643Zm-.171-.5-.6-1.728-.61,1.728Z" transform="translate(-128.705 -22.887)" fill="#393939"/>
        <path id="Path_36" data-name="Path 36" d="M222.769,40.458a1.311,1.311,0,0,1,.511-.532,1.633,1.633,0,0,1,1.635.067,1.25,1.25,0,0,1,.473.725h-.658a.7.7,0,0,0-.257-.342.757.757,0,0,0-.444-.123.74.74,0,0,0-.6.265,1.352,1.352,0,0,0,0,1.485.736.736,0,0,0,.6.267.677.677,0,0,0,.7-.465h.658a1.316,1.316,0,0,1-.482.715,1.422,1.422,0,0,1-.877.265,1.465,1.465,0,0,1-.749-.19,1.331,1.331,0,0,1-.511-.535,1.826,1.826,0,0,1,0-1.6" transform="translate(-134.415 -23.997)" fill="#393939"/>
        <path id="Path_37" data-name="Path 37" d="M230.873,40.46a1.345,1.345,0,0,1,1.207-.722,1.289,1.289,0,0,1,.607.136,1.23,1.23,0,0,1,.415.34v-.428h.616v2.948H233.1V42.3a1.212,1.212,0,0,1-.423.348,1.369,1.369,0,0,1-1.306-.056,1.39,1.39,0,0,1-.5-.546,1.68,1.68,0,0,1-.184-.795,1.636,1.636,0,0,1,.184-.787m2.1.268a.888.888,0,0,0-.329-.343.867.867,0,0,0-.439-.118.879.879,0,0,0-.439.115.869.869,0,0,0-.329.337,1.049,1.049,0,0,0-.126.527,1.093,1.093,0,0,0,.126.535.889.889,0,0,0,.332.351.851.851,0,0,0,.436.12.867.867,0,0,0,.439-.118.885.885,0,0,0,.329-.345,1.081,1.081,0,0,0,.126-.532,1.066,1.066,0,0,0-.126-.53" transform="translate(-139.31 -23.997)" fill="#393939"/>
        <path id="Path_38" data-name="Path 38" d="M240.033,38.991a1.345,1.345,0,0,1,1.212-.722,1.385,1.385,0,0,1,.57.126,1.168,1.168,0,0,1,.447.335V37.306h.616v3.96h-.616v-.444a1.137,1.137,0,0,1-.414.353,1.289,1.289,0,0,1-.608.139,1.318,1.318,0,0,1-.7-.2,1.382,1.382,0,0,1-.5-.546,1.681,1.681,0,0,1-.184-.795,1.636,1.636,0,0,1,.184-.787m2.1.268a.883.883,0,0,0-.329-.343.864.864,0,0,0-.438-.118.865.865,0,0,0-.768.452,1.053,1.053,0,0,0-.126.527,1.1,1.1,0,0,0,.126.535.89.89,0,0,0,.332.351.85.85,0,0,0,.436.12.864.864,0,0,0,.438-.118.88.88,0,0,0,.329-.345,1.081,1.081,0,0,0,.126-.532,1.066,1.066,0,0,0-.126-.53" transform="translate(-144.841 -22.529)" fill="#393939"/>
        <path id="Path_39" data-name="Path 39" d="M251.89,41.488h-2.253a.813.813,0,0,0,.84.781.714.714,0,0,0,.7-.412h.658a1.326,1.326,0,0,1-.484.666,1.421,1.421,0,0,1-.869.26,1.506,1.506,0,0,1-.757-.19,1.351,1.351,0,0,1-.524-.535,1.63,1.63,0,0,1-.19-.8,1.671,1.671,0,0,1,.185-.8,1.3,1.3,0,0,1,.519-.533,1.544,1.544,0,0,1,.768-.187,1.5,1.5,0,0,1,.744.182,1.28,1.28,0,0,1,.508.511,1.536,1.536,0,0,1,.182.757,1.909,1.909,0,0,1-.021.3M251.275,41a.7.7,0,0,0-.241-.54.86.86,0,0,0-.583-.2.783.783,0,0,0-.541.2.839.839,0,0,0-.267.543Z" transform="translate(-150.371 -23.997)" fill="#393939"/>
        <path id="Path_40" data-name="Path 40" d="M262.045,39.883a1.047,1.047,0,0,1,.434.428,1.4,1.4,0,0,1,.158.685v1.739h-.6V41.086a.856.856,0,0,0-.2-.607.7.7,0,0,0-.54-.211.712.712,0,0,0-.543.211.85.85,0,0,0-.2.607v1.648h-.6V41.086a.856.856,0,0,0-.2-.607.7.7,0,0,0-.54-.211.713.713,0,0,0-.543.211.848.848,0,0,0-.2.607v1.648h-.61V39.786h.61v.337a1.015,1.015,0,0,1,.38-.284,1.207,1.207,0,0,1,.492-.1,1.31,1.31,0,0,1,.631.15,1.025,1.025,0,0,1,.428.433.986.986,0,0,1,.418-.425,1.231,1.231,0,0,1,.61-.158,1.322,1.322,0,0,1,.623.145" transform="translate(-155.714 -23.997)" fill="#393939"/>
        <path id="Path_41" data-name="Path 41" d="M271.8,37.57a.391.391,0,0,1,.279-.669.371.371,0,0,1,.273.112.4.4,0,0,1,0,.557.371.371,0,0,1-.273.112.379.379,0,0,1-.279-.112m.578,3.451h-.61V38.073h.61Z" transform="translate(-164.067 -22.284)" fill="#393939"/>
        <path id="Path_42" data-name="Path 42" d="M275.656,42.657a1.094,1.094,0,0,1-.436-.343.853.853,0,0,1-.171-.484h.632a.428.428,0,0,0,.179.313.649.649,0,0,0,.409.126.69.69,0,0,0,.4-.1.3.3,0,0,0,.141-.254.261.261,0,0,0-.158-.246,2.966,2.966,0,0,0-.5-.177,4.772,4.772,0,0,1-.54-.177.944.944,0,0,1-.361-.262.686.686,0,0,1-.153-.465.728.728,0,0,1,.139-.431.929.929,0,0,1,.4-.307,1.491,1.491,0,0,1,.6-.112,1.232,1.232,0,0,1,.811.254.912.912,0,0,1,.329.693h-.61a.435.435,0,0,0-.16-.316.6.6,0,0,0-.391-.118.63.63,0,0,0-.369.091.281.281,0,0,0-.128.241.26.26,0,0,0,.085.2.614.614,0,0,0,.209.126q.123.045.364.115a4.086,4.086,0,0,1,.527.174.987.987,0,0,1,.355.259.69.69,0,0,1,.156.455.76.76,0,0,1-.139.449.923.923,0,0,1-.393.311,1.466,1.466,0,0,1-.6.112,1.489,1.489,0,0,1-.624-.126" transform="translate(-166.098 -23.997)" fill="#393939"/>
        <path id="Path_43" data-name="Path 43" d="M282.34,40.458a1.312,1.312,0,0,1,.511-.532,1.633,1.633,0,0,1,1.635.067,1.25,1.25,0,0,1,.473.725H284.3a.7.7,0,0,0-.257-.342.757.757,0,0,0-.444-.123.74.74,0,0,0-.6.265A1.351,1.351,0,0,0,283,42a.736.736,0,0,0,.6.267.677.677,0,0,0,.7-.465h.658a1.316,1.316,0,0,1-.482.715,1.422,1.422,0,0,1-.877.265,1.465,1.465,0,0,1-.749-.19,1.331,1.331,0,0,1-.511-.535,1.826,1.826,0,0,1,0-1.6" transform="translate(-170.389 -23.997)" fill="#393939"/>
        <path id="Path_44" data-name="Path 44" d="M292.9,38.415a1.032,1.032,0,0,1,.418.428,1.426,1.426,0,0,1,.152.685v1.739h-.6V39.618a.856.856,0,0,0-.2-.607.7.7,0,0,0-.54-.211.713.713,0,0,0-.543.211.848.848,0,0,0-.2.607v1.648h-.61v-3.96h.61v1.354a1.028,1.028,0,0,1,.393-.289,1.315,1.315,0,0,1,.522-.1,1.237,1.237,0,0,1,.6.145" transform="translate(-175.593 -22.529)" fill="#393939"/>
        <path id="Path_45" data-name="Path 45" d="M215.732,57.843l-1.439-1.664v1.664h-.61V54.125h.61v1.7l1.445-1.7h.765l-1.616,1.862,1.643,1.857Z" transform="translate(-129.039 -32.685)" fill="#393939"/>
        <path id="Path_46" data-name="Path 46" d="M224.6,57.7h-2.253a.813.813,0,0,0,.84.781.714.714,0,0,0,.7-.412h.658a1.326,1.326,0,0,1-.484.666,1.421,1.421,0,0,1-.869.26,1.506,1.506,0,0,1-.757-.19,1.352,1.352,0,0,1-.524-.535,1.63,1.63,0,0,1-.19-.8,1.671,1.671,0,0,1,.185-.8,1.3,1.3,0,0,1,.519-.533,1.544,1.544,0,0,1,.768-.187,1.5,1.5,0,0,1,.743.182,1.28,1.28,0,0,1,.508.511,1.535,1.535,0,0,1,.182.757,1.9,1.9,0,0,1-.021.3m-.615-.492a.7.7,0,0,0-.241-.54.86.86,0,0,0-.583-.2.783.783,0,0,0-.541.2.839.839,0,0,0-.267.543Z" transform="translate(-133.893 -33.786)" fill="#393939"/>
        <path id="Path_47" data-name="Path 47" d="M232.678,56.093a1.03,1.03,0,0,1,.431.428,1.408,1.408,0,0,1,.155.685v1.739h-.6V57.3a.856.856,0,0,0-.2-.607.7.7,0,0,0-.54-.211.713.713,0,0,0-.543.211.848.848,0,0,0-.2.607v1.648h-.61V56h.61v.337a1.009,1.009,0,0,1,.383-.284,1.223,1.223,0,0,1,.5-.1,1.322,1.322,0,0,1,.623.145" transform="translate(-139.236 -33.786)" fill="#393939"/>
        <path id="Path_48" data-name="Path 48" d="M241.445,56.093a1.03,1.03,0,0,1,.431.428,1.408,1.408,0,0,1,.155.685v1.739h-.6V57.3a.856.856,0,0,0-.2-.607.7.7,0,0,0-.54-.211.713.713,0,0,0-.543.211.848.848,0,0,0-.2.607v1.648h-.61V56h.61v.337a1.009,1.009,0,0,1,.383-.284,1.223,1.223,0,0,1,.5-.1,1.322,1.322,0,0,1,.623.145" transform="translate(-144.53 -33.786)" fill="#393939"/>
        <path id="Path_49" data-name="Path 49" d="M248.01,53.78a.391.391,0,0,1,.278-.669.372.372,0,0,1,.273.112.4.4,0,0,1,0,.557.372.372,0,0,1-.273.112.379.379,0,0,1-.278-.112m.578,3.451h-.61V54.283h.61Z" transform="translate(-149.702 -32.073)" fill="#393939"/>
        <path id="Path_50" data-name="Path 50" d="M251.869,58.867a1.094,1.094,0,0,1-.436-.343.853.853,0,0,1-.171-.484h.632a.428.428,0,0,0,.179.313.649.649,0,0,0,.409.126.691.691,0,0,0,.4-.1.3.3,0,0,0,.141-.254.261.261,0,0,0-.158-.246,2.965,2.965,0,0,0-.5-.177,4.775,4.775,0,0,1-.54-.177.944.944,0,0,1-.361-.262.686.686,0,0,1-.153-.465.728.728,0,0,1,.139-.431.929.929,0,0,1,.4-.307,1.491,1.491,0,0,1,.6-.112,1.232,1.232,0,0,1,.811.254.913.913,0,0,1,.329.693h-.61a.435.435,0,0,0-.16-.316.6.6,0,0,0-.391-.118.63.63,0,0,0-.369.091.281.281,0,0,0-.128.241.26.26,0,0,0,.085.2.615.615,0,0,0,.209.126q.123.045.364.115a4.082,4.082,0,0,1,.527.174.987.987,0,0,1,.355.259.69.69,0,0,1,.156.455.76.76,0,0,1-.139.449.923.923,0,0,1-.393.311,1.467,1.467,0,0,1-.6.112,1.489,1.489,0,0,1-.623-.126" transform="translate(-151.733 -33.786)" fill="#393939"/>
        <path id="Path_51" data-name="Path 51" d="M258.552,56.668a1.311,1.311,0,0,1,.511-.532,1.633,1.633,0,0,1,1.635.067,1.25,1.25,0,0,1,.473.725h-.658a.7.7,0,0,0-.257-.342.757.757,0,0,0-.444-.123.74.74,0,0,0-.6.265,1.352,1.352,0,0,0,0,1.485.736.736,0,0,0,.6.267.677.677,0,0,0,.7-.465h.658a1.316,1.316,0,0,1-.482.715,1.422,1.422,0,0,1-.877.265,1.465,1.465,0,0,1-.749-.19,1.331,1.331,0,0,1-.511-.535,1.825,1.825,0,0,1,0-1.6" transform="translate(-156.024 -33.786)" fill="#393939"/>
        <path id="Path_52" data-name="Path 52" d="M269.356,57.7H267.1a.813.813,0,0,0,.84.781.714.714,0,0,0,.7-.412h.658a1.326,1.326,0,0,1-.484.666,1.421,1.421,0,0,1-.869.26,1.506,1.506,0,0,1-.757-.19,1.351,1.351,0,0,1-.524-.535,1.63,1.63,0,0,1-.19-.8,1.671,1.671,0,0,1,.185-.8,1.3,1.3,0,0,1,.519-.533,1.544,1.544,0,0,1,.768-.187,1.5,1.5,0,0,1,.743.182,1.279,1.279,0,0,1,.508.511,1.535,1.535,0,0,1,.182.757,1.913,1.913,0,0,1-.021.3m-.615-.492a.7.7,0,0,0-.241-.54.86.86,0,0,0-.583-.2.783.783,0,0,0-.541.2.839.839,0,0,0-.267.543Z" transform="translate(-160.918 -33.786)" fill="#393939"/>
        <path id="Path_53" data-name="Path 53" d="M277.43,56.093a1.03,1.03,0,0,1,.431.428,1.407,1.407,0,0,1,.155.685v1.739h-.6V57.3a.856.856,0,0,0-.2-.607.7.7,0,0,0-.54-.211.713.713,0,0,0-.543.211.848.848,0,0,0-.2.607v1.648h-.61V56h.61v.337a1.009,1.009,0,0,1,.383-.284,1.223,1.223,0,0,1,.5-.1,1.322,1.322,0,0,1,.623.145" transform="translate(-166.261 -33.786)" fill="#393939"/>
        <path id="Path_54" data-name="Path 54" d="M284.414,55.45v1.632a.313.313,0,0,0,.078.238.385.385,0,0,0,.265.072h.375V57.9h-.482a.928.928,0,0,1-.631-.193.793.793,0,0,1-.22-.626V55.45h-.348v-.5h.348v-.733h.616v.733h.717v.5Z" transform="translate(-171.172 -32.742)" fill="#393939"/>
        <path id="Path_55" data-name="Path 55" d="M290.077,56.074a1.055,1.055,0,0,1,.527-.126v.631h-.155a.744.744,0,0,0-.543.182.869.869,0,0,0-.185.631v1.552h-.61V56h.61v.428a.956.956,0,0,1,.356-.351" transform="translate(-174.59 -33.786)" fill="#393939"/>
        <path id="Path_56" data-name="Path 56" d="M296.927,56.07v2.948h-.61V58.67a.991.991,0,0,1-.377.286,1.2,1.2,0,0,1-.5.1,1.321,1.321,0,0,1-.623-.145,1.041,1.041,0,0,1-.434-.428,1.386,1.386,0,0,1-.158-.685V56.07h.6v1.643a.857.857,0,0,0,.2.607.7.7,0,0,0,.54.212.713.713,0,0,0,.543-.212.848.848,0,0,0,.2-.607V56.07Z" transform="translate(-177.681 -33.86)" fill="#393939"/>
        <path id="Path_57" data-name="Path 57" d="M307.256,56.093a1.047,1.047,0,0,1,.434.428,1.4,1.4,0,0,1,.158.685v1.739h-.6V57.3a.856.856,0,0,0-.2-.607.7.7,0,0,0-.54-.211.712.712,0,0,0-.543.211.85.85,0,0,0-.2.607v1.648h-.6V57.3a.856.856,0,0,0-.2-.607.7.7,0,0,0-.54-.211.713.713,0,0,0-.543.211.848.848,0,0,0-.2.607v1.648h-.61V56h.61v.337a1.015,1.015,0,0,1,.38-.284,1.207,1.207,0,0,1,.492-.1,1.31,1.31,0,0,1,.631.15,1.025,1.025,0,0,1,.428.433.985.985,0,0,1,.418-.425,1.231,1.231,0,0,1,.61-.158,1.322,1.322,0,0,1,.623.145" transform="translate(-183.016 -33.786)" fill="#393939"/>
      </g>
    </g>
  </g>
</svg>
