<svg id="Group_51" data-name="Group 51" xmlns="http://www.w3.org/2000/svg" xmlns:xlink="http://www.w3.org/1999/xlink" width="357.154" height="182.26" viewBox="0 0 357.154 182.26">
  <defs>
    <clipPath id="clip-path">
      <rect id="Rectangle_88" data-name="Rectangle 88" width="357.154" height="182.26" fill="none"/>
    </clipPath>
    <clipPath id="clip-path-3">
      <path id="Path_90" data-name="Path 90" d="M1225.743,757.353l-4.936,42.784c27.576,7.965,32.277,7.494,59.755,0l-4.936-42.785c-2.417-13.179-13.1-16.2-24.941-15.419v-.007c-.086,0-.258,0-.344,0v.007c-1.092-.079-2.176-.12-3.245-.12-10.337,0-19.288,3.876-21.354,15.54" transform="translate(-1220.807 -741.813)" fill="none"/>
    </clipPath>
    <clipPath id="clip-path-5">
      <path id="Path_112" data-name="Path 112" d="M1944.992,1163.266l1.4,5.97,1.761-5.97Z" transform="translate(-1944.992 -1163.266)" fill="none"/>
    </clipPath>
    <clipPath id="clip-path-7">
      <path id="Path_115" data-name="Path 115" d="M1963.436,1163.837l3.183-5.349-3.067-.783Z" transform="translate(-1963.436 -1157.704)" fill="none"/>
    </clipPath>
    <clipPath id="clip-path-9">
      <path id="Path_128" data-name="Path 128" d="M2104.184,884.292l11.132-5.821a5.831,5.831,0,0,0-5.275-3.342c-4.189,0-8.4,4.239-5.857,9.162" transform="translate(-2103.411 -875.13)" fill="none"/>
    </clipPath>
    <clipPath id="clip-path-11">
      <path id="Path_132" data-name="Path 132" d="M2272.279,872.632l11.987,3.755c1.484-4.815-2.424-8.079-6.243-8.08a5.837,5.837,0,0,0-5.744,4.324" transform="translate(-2272.279 -868.308)" fill="none"/>
    </clipPath>
    <clipPath id="clip-path-13">
      <path id="Path_137" data-name="Path 137" d="M2096.406,964.042c.4,23.571,35.465,23.575,35.868,0-.2-11.787-9.066-17.68-17.934-17.679s-17.733,5.893-17.934,17.679" transform="translate(-2096.406 -946.364)" fill="none"/>
    </clipPath>
    <clipPath id="clip-path-14">
      <rect id="Rectangle_86" data-name="Rectangle 86" width="42.19" height="39.165" fill="none"/>
    </clipPath>
  </defs>
  <g id="Group_50" data-name="Group 50" clip-path="url(#clip-path)">
    <g id="Group_22" data-name="Group 22">
      <g id="Group_21" data-name="Group 21" clip-path="url(#clip-path)">
        <path id="Path_58" data-name="Path 58" d="M426.1,181.913C431.2,121.89,405.781-11.146,285.151.747c-67.594,2.209-63.314,52.24-89.365,59.742s-77.7-15.457-105.22,35.941c-26.114,48.771,9.1,85.484,9.1,85.484Z" transform="translate(-69.555 0.001)" fill="#dcecfd"/>
        <path id="Path_59" data-name="Path 59" d="M2172,1021.9s-.31-29.455-2.212-39.383c0,0-9.8,9.72-9.348,21.839a30.478,30.478,0,0,0-13.758-27.065s-4.578,7.994-2.83,24.148a32.08,32.08,0,0,0-21.089-9.545s.782,14.207,8.943,22.91c0,0-2.639-5.017-19.5-5.534,0,0,5.278,8.624,10.115,12.63Z" transform="translate(-1815.451 -839.982)" fill="#bedbfa"/>
        <path id="Path_60" data-name="Path 60" d="M1351.523,303.1a14.041,14.041,0,0,1-13.992-14.74h27.983a14.041,14.041,0,0,1-13.992,14.74" transform="translate(-1149.599 -247.85)" fill="#f9ce68"/>
        <path id="Path_61" data-name="Path 61" d="M1555.657,233.491a1.945,1.945,0,0,1-1.9-1.53l-22.454-102.94-93.061-50.046a1.944,1.944,0,1,1,1.842-3.425l94.637,50.894,22.836,104.689a1.951,1.951,0,0,1-1.9,2.359" transform="translate(-1235.296 -64.736)" fill="#152e60"/>
        <path id="Path_62" data-name="Path 62" d="M1318.012,107.75H1270.7c-1.662-17.471,3.174-34.847,23.658-35.615,20.481.767,25.321,18.153,23.656,35.615" transform="translate(-1091.911 -62)" fill="#324d90"/>
        <path id="Path_63" data-name="Path 63" d="M2075.239,415.341c-.161,9.434-14.194,9.432-14.354,0,.161-9.434,14.194-9.432,14.354,0" transform="translate(-1771.339 -350.906)" fill="#324d90"/>
        <path id="Path_64" data-name="Path 64" d="M2091.776,434.828c-.088,5.186-7.8,5.185-7.891,0,.088-5.186,7.8-5.185,7.891,0" transform="translate(-1791.107 -370.393)" fill="#152e60"/>
        <path id="Path_65" data-name="Path 65" d="M2115.873,1192.077c4.951-22.322,42.1-22.454,45.718,0Z" transform="translate(-1818.601 -1010.163)" fill="#152e60"/>
        <path id="Path_66" data-name="Path 66" d="M1316.36,281.608h-47.314a.572.572,0,0,1,0-1.144h47.314a.572.572,0,0,1,0,1.144" transform="translate(-1090.258 -241.06)" fill="#152e60"/>
        <path id="Path_67" data-name="Path 67" d="M1316.36,253.2h-47.314a.572.572,0,0,1,0-1.144h47.314a.572.572,0,0,1,0,1.144" transform="translate(-1090.258 -216.639)" fill="#152e60"/>
        <path id="Path_68" data-name="Path 68" d="M791.382,972.184h-7.705a1.618,1.618,0,0,1-1.618-1.618v-49.5a1.618,1.618,0,0,1,1.618-1.618h7.705A1.618,1.618,0,0,1,793,921.067v49.5a1.618,1.618,0,0,1-1.618,1.618" transform="translate(-672.183 -790.27)" fill="#324d90"/>
        <rect id="Rectangle_42" data-name="Rectangle 42" width="10.941" height="3.456" transform="translate(109.876 134.964)" fill="#2a437d"/>
        <rect id="Rectangle_43" data-name="Rectangle 43" width="10.941" height="3.456" transform="translate(109.876 140.071)" fill="#2a437d"/>
        <rect id="Rectangle_44" data-name="Rectangle 44" width="10.941" height="3.456" transform="translate(109.876 166.37)" fill="#2a437d"/>
        <rect id="Rectangle_45" data-name="Rectangle 45" width="10.941" height="3.455" transform="translate(109.876 171.476)" fill="#2a437d"/>
        <path id="Path_69" data-name="Path 69" d="M872.177,1067.776H861.495a1.564,1.564,0,0,1-1.564-1.564V1032.23a1.564,1.564,0,0,1,1.564-1.564h10.682a1.564,1.564,0,0,1,1.564,1.564v33.982a1.564,1.564,0,0,1-1.564,1.564" transform="translate(-739.114 -885.861)" fill="#2a437d"/>
        <rect id="Rectangle_46" data-name="Rectangle 46" width="13.81" height="2.85" transform="translate(120.817 150.2)" fill="#324d90"/>
        <rect id="Rectangle_47" data-name="Rectangle 47" width="13.81" height="2.85" transform="translate(120.817 172.937)" fill="#324d90"/>
        <path id="Path_70" data-name="Path 70" d="M885.491,1134.937c-.1,6.058-9.115,6.057-9.218,0,.1-6.058,9.115-6.057,9.218,0" transform="translate(-753.16 -971.578)" fill="#324d90"/>
        <path id="Path_71" data-name="Path 71" d="M695.666,1028.715h-10.21a1.808,1.808,0,0,1-1.808-1.808V987.029a1.808,1.808,0,0,1,1.808-1.808h10.21a1.808,1.808,0,0,1,1.808,1.808v39.878a1.808,1.808,0,0,1-1.808,1.808" transform="translate(-587.598 -846.801)" fill="#f9ce68"/>
        <path id="Path_72" data-name="Path 72" d="M683.648,1019.742a80.262,80.262,0,0,1,13.826,0,80.287,80.287,0,0,1-13.826,0" transform="translate(-587.598 -876.216)" fill="#f08f3c"/>
        <path id="Path_73" data-name="Path 73" d="M683.648,1047.358a80.287,80.287,0,0,1,13.826,0,80.262,80.262,0,0,1-13.826,0" transform="translate(-587.598 -899.952)" fill="#f08f3c"/>
        <path id="Path_74" data-name="Path 74" d="M683.648,1230.978a80.262,80.262,0,0,1,13.826,0,80.274,80.274,0,0,1-13.826,0" transform="translate(-587.598 -1057.774)" fill="#f08f3c"/>
        <path id="Path_75" data-name="Path 75" d="M683.648,1258.593a80.274,80.274,0,0,1,13.826,0,80.274,80.274,0,0,1-13.826,0" transform="translate(-587.598 -1081.509)" fill="#f08f3c"/>
        <rect id="Rectangle_48" data-name="Rectangle 48" width="5.93" height="20.139" transform="translate(100.362 150.098)" fill="#f08f3c"/>
        <path id="Path_76" data-name="Path 76" d="M540.823,979.561l-9.343-2.153a2.034,2.034,0,0,1-1.526-2.439l10.437-45.3a2.034,2.034,0,0,1,2.439-1.526l9.343,2.153a2.034,2.034,0,0,1,1.526,2.439l-10.437,45.3a2.034,2.034,0,0,1-2.439,1.526" transform="translate(-455.453 -797.699)" fill="#4292f3"/>
        <rect id="Rectangle_49" data-name="Rectangle 49" width="2.402" height="8.836" transform="translate(86.241 137.05) rotate(-77.026)" fill="#324d90"/>
        <rect id="Rectangle_50" data-name="Rectangle 50" width="2.402" height="8.836" transform="translate(85.373 140.819) rotate(-77.025)" fill="#324d90"/>
        <rect id="Rectangle_51" data-name="Rectangle 51" width="2.402" height="8.836" transform="translate(78.317 171.444) rotate(-77.025)" fill="#324d90"/>
        <rect id="Rectangle_52" data-name="Rectangle 52" width="2.402" height="8.836" transform="translate(77.449 175.212) rotate(-77.025)" fill="#324d90"/>
        <path id="Path_77" data-name="Path 77" d="M625.254,1026.535c-1.59,8.221-3.493,16.489-5.662,24.576,1.588-8.222,3.5-16.488,5.662-24.576" transform="translate(-532.542 -882.311)" fill="#324d90"/>
        <path id="Path_78" data-name="Path 78" d="M600.617,1022.553c-1.59,8.221-3.493,16.488-5.662,24.576,1.588-8.222,3.495-16.488,5.662-24.576" transform="translate(-511.366 -878.888)" fill="#324d90"/>
        <path id="Path_79" data-name="Path 79" d="M575.98,1018.571c-1.591,8.221-3.493,16.489-5.662,24.576,1.588-8.221,3.495-16.488,5.662-24.576" transform="translate(-490.191 -875.466)" fill="#324d90"/>
        <path id="Path_80" data-name="Path 80" d="M1302.3,482.778h-14.919l1.048-6.766-4.192,6.766h-3.377c1.108-43.149,41.6-45.573,41.8,0h-3.346l-1.256-10.231-1.478,10.231h-6.174V472.7l-1.972,10.083Z" transform="translate(-1100.901 -386.348)" fill="#59445a"/>
        <path id="Path_81" data-name="Path 81" d="M1333.752,570.255c.788,4.977-3.388,5.686-4.288.728-.788-4.977,3.388-5.686,4.288-.728" transform="translate(-1142.595 -487.23)" fill="#eda19d"/>
        <path id="Path_82" data-name="Path 82" d="M1505.754,570.255c-.788,4.977,3.388,5.686,4.288.728.788-4.977-3.388-5.686-4.288-.728" transform="translate(-1294.116 -487.23)" fill="#eda19d"/>
        <path id="Path_83" data-name="Path 83" d="M1390.181,620.781h-12.617c1.522,4.345-1.8,26.1-1.8,26.1h16.215s-3.321-21.76-1.8-26.1" transform="translate(-1182.475 -533.564)" fill="#f4d2c6"/>
        <path id="Path_84" data-name="Path 84" d="M1370.451,503.366c-.3,19.481-24.043,19.479-24.344,0-2.159-19.941,25.859-20.136,24.344,0" transform="translate(-1156.882 -419.727)" fill="#f4d2c6"/>
        <path id="Path_85" data-name="Path 85" d="M1387.667,686.354a10.673,10.673,0,0,0,12.272,0l.345,3.947s-7.058,3.3-12.964.041Z" transform="translate(-1192.406 -589.924)" fill="#eda19d"/>
        <path id="Path_86" data-name="Path 86" d="M1361.492,475.52v9.33s-7.535.617-14.471,1.688c-1.94-12.082,14.118-16.56,14.471-11.018" transform="translate(-1157.629 -406.689)" fill="#59445a"/>
        <path id="Path_87" data-name="Path 87" d="M1450.45,483.56l1.989,9.605a33.63,33.63,0,0,1,7.57,2.132s3.4-13.752-9.558-11.737" transform="translate(-1246.667 -415.449)" fill="#59445a"/>
        <path id="Path_88" data-name="Path 88" d="M1275.626,757.352c-2.417-13.179-13.1-16.2-24.941-15.419v-.007c-.086,0-.258,0-.344,0v.007c-11.656-.838-22.319,2.55-24.6,15.42,0,0-4.936,42.784-4.936,42.784,27.576,7.965,32.277,7.494,59.755,0Z" transform="translate(-1049.288 -637.591)" fill="#4292f3"/>
      </g>
    </g>
    <g id="Group_24" data-name="Group 24" transform="translate(171.519 104.222)">
      <g id="Group_23" data-name="Group 23" clip-path="url(#clip-path-3)">
        <path id="Path_89" data-name="Path 89" d="M1239.761,1009.226c10.142,5.619,32.2,18.982,49.094,16.944-25.208,13.094-23.608,13.214-50.014,2.892Z" transform="translate(-1236.307 -971.656)" fill="#3c7ed7"/>
      </g>
    </g>
    <g id="Group_26" data-name="Group 26">
      <g id="Group_25" data-name="Group 25" clip-path="url(#clip-path)">
        <path id="Path_91" data-name="Path 91" d="M1364.074,742.16c1.2,8.02,18.324,7.985,19.5,0a156.107,156.107,0,0,0-19.5,0" transform="translate(-1172.427 -637.621)" fill="#f4d2c6"/>
        <path id="Path_92" data-name="Path 92" d="M1363.1,750.138l-6.147,6.129a12.369,12.369,0,0,1-5.242-11.863l1.641-.332Z" transform="translate(-1161.709 -639.533)" fill="#fff"/>
        <path id="Path_93" data-name="Path 93" d="M1433.456,750.138l6.147,6.129a12.369,12.369,0,0,0,5.242-11.863l-1.641-.332Z" transform="translate(-1232.061 -639.533)" fill="#fff"/>
        <path id="Path_94" data-name="Path 94" d="M1196.507,915.1c-.45,9.224-7.271,24.928,7.3,26.448l-1.181-22.233Z" transform="translate(-1026.697 -786.533)" fill="#eda19d"/>
        <path id="Path_95" data-name="Path 95" d="M1607.4,919.376c.583,9.582,7.048,24.7-7.34,27.1l1.215-22.889Z" transform="translate(-1375.256 -790.207)" fill="#eda19d"/>
        <path id="Path_96" data-name="Path 96" d="M1217.276,1221.433s-4.742-2.942-7.242-2.17a32.948,32.948,0,0,0-2.983,3.334l-8.857,3.354a4.49,4.49,0,0,0-2.724,3.813h22.447Z" transform="translate(-1027.512 -1047.851)" fill="#eda19d"/>
        <path id="Path_97" data-name="Path 97" d="M1346.4,1099.838s39.438-21.836,53.485-19.921,14.663,21.467,2.531,25.618-55.233,4.47-55.233,4.47Z" transform="translate(-1157.238 -928.091)" fill="#2a437d"/>
        <path id="Path_98" data-name="Path 98" d="M1125.289,1099.838s-39.438-21.836-53.485-19.921-14.663,21.467-2.531,25.618,55.233,4.47,55.233,4.47Z" transform="translate(-911.663 -928.091)" fill="#324d90"/>
        <path id="Path_99" data-name="Path 99" d="M1515.578,1221.433s4.742-2.942,7.242-2.17a32.948,32.948,0,0,1,2.983,3.334l8.857,3.354a4.49,4.49,0,0,1,2.724,3.813h-22.447Z" transform="translate(-1302.093 -1047.851)" fill="#f4d2c6"/>
        <path id="Path_100" data-name="Path 100" d="M1213.617,811.315l27.623,11.617V854.4l-27.623-12.058Z" transform="translate(-1043.108 -697.328)" fill="#f9ce68"/>
        <path id="Path_101" data-name="Path 101" d="M1476.649,811.315l-27.623,11.617V854.4l27.623-12.058Z" transform="translate(-1245.444 -697.328)" fill="#f9ce68"/>
        <rect id="Rectangle_54" data-name="Rectangle 54" width="5.452" height="31.468" transform="translate(198.131 125.603)" fill="#f08f3c"/>
        <path id="Path_102" data-name="Path 102" d="M1226.97,808.039l6.351-1.453,22,9.384-2.6,2.9Z" transform="translate(-1054.585 -693.263)" fill="#fff"/>
        <path id="Path_103" data-name="Path 103" d="M1428.755,816.006l2.848,2.9,25.065-10.541-4.585-1.734Z" transform="translate(-1228.021 -693.3)" fill="#fff"/>
        <path id="Path_104" data-name="Path 104" d="M1412.827,873.379l-2.6,2.9h5.452Z" transform="translate(-1212.093 -750.672)" fill="#dcecfd"/>
        <path id="Path_105" data-name="Path 105" d="M1606.458,891.045c-1.991,1.208-5.99,2.437-6.185,5.247-.641,3.344,3.2,6.245,6.263,4.836a3.19,3.19,0,0,0,1.3-2.319v-5.581a2.417,2.417,0,0,0-1.38-2.183" transform="translate(-1375.38 -765.857)" fill="#f4d2c6"/>
        <path id="Path_106" data-name="Path 106" d="M1205.18,891.045c1.991,1.208,5.99,2.437,6.185,5.247.64,3.344-3.2,6.245-6.264,4.836a3.192,3.192,0,0,1-1.3-2.319v-5.581a2.416,2.416,0,0,1,1.38-2.183" transform="translate(-1034.669 -765.857)" fill="#f4d2c6"/>
        <path id="Path_107" data-name="Path 107" d="M1608.693,372.008c-14.874-.067-27.732,10.016-18.406,20.59-3.314,14.606-2.57,10.156,9.553,5.29,29.1,8.1,46.287-23.2,8.853-25.88" transform="translate(-1364.141 -319.742)" fill="#fff"/>
        <path id="Path_108" data-name="Path 108" d="M1657.032,455.309a1.936,1.936,0,0,1-3.872,0,1.936,1.936,0,0,1,3.872,0" transform="translate(-1420.897 -389.708)" fill="#dcecfd"/>
        <path id="Path_109" data-name="Path 109" d="M1737.262,455.309a1.936,1.936,0,0,1-3.871,0,1.936,1.936,0,0,1,3.871,0" transform="translate(-1489.856 -389.708)" fill="#dcecfd"/>
        <path id="Path_110" data-name="Path 110" d="M1817.492,455.309a1.936,1.936,0,0,1-3.872,0,1.936,1.936,0,0,1,3.872,0" transform="translate(-1558.814 -389.708)" fill="#dcecfd"/>
        <rect id="Rectangle_55" data-name="Rectangle 55" width="1.055" height="25.674" transform="translate(274.319 137.761)" fill="#152e60"/>
        <rect id="Rectangle_56" data-name="Rectangle 56" width="1.055" height="25.674" transform="translate(275.374 137.761)" fill="#324d90"/>
        <rect id="Rectangle_57" data-name="Rectangle 57" width="1.055" height="25.674" transform="translate(273.264 137.761)" fill="#324d90"/>
        <path id="Path_111" data-name="Path 111" d="M1944.992,1163.266l1.405,5.97,1.76-5.97Z" transform="translate(-1671.728 -999.832)" fill="#fff"/>
      </g>
    </g>
    <g id="Group_28" data-name="Group 28" transform="translate(273.264 163.434)">
      <g id="Group_27" data-name="Group 27" clip-path="url(#clip-path-5)">
        <rect id="Rectangle_59" data-name="Rectangle 59" width="1.875" height="2.632" transform="translate(0.428 3.569)" fill="#152e60"/>
      </g>
    </g>
    <g id="Group_30" data-name="Group 30">
      <g id="Group_29" data-name="Group 29" clip-path="url(#clip-path)">
        <rect id="Rectangle_60" data-name="Rectangle 60" width="3.166" height="3.419" transform="translate(273.264 134.342)" fill="#f9ce68"/>
        <rect id="Rectangle_61" data-name="Rectangle 61" width="3.166" height="0.762" transform="translate(273.264 136.315)" fill="#f08f3c"/>
        <rect id="Rectangle_62" data-name="Rectangle 62" width="3.166" height="0.762" transform="translate(273.264 135.024)" fill="#f08f3c"/>
        <path id="Path_113" data-name="Path 113" d="M1948.063,943.959v.359H1944.9a1.651,1.651,0,0,1,1.583-1.942,1.583,1.583,0,0,1,1.583,1.583" transform="translate(-1671.634 -809.976)" fill="#fff"/>
        <rect id="Rectangle_63" data-name="Rectangle 63" width="25.674" height="1.055" transform="translate(276.994 162.914) rotate(-75.673)" fill="#f08f3c"/>
        <rect id="Rectangle_64" data-name="Rectangle 64" width="25.674" height="1.055" transform="translate(278.016 163.175) rotate(-75.673)" fill="#f9ce68"/>
        <rect id="Rectangle_65" data-name="Rectangle 65" width="25.674" height="1.055" transform="translate(275.972 162.653) rotate(-75.673)" fill="#f9ce68"/>
        <path id="Path_114" data-name="Path 114" d="M1963.553,1157.7l-.116,6.133,3.183-5.349Z" transform="translate(-1687.582 -995.051)" fill="#fff"/>
      </g>
    </g>
    <g id="Group_32" data-name="Group 32" transform="translate(275.855 162.653)">
      <g id="Group_31" data-name="Group 31" clip-path="url(#clip-path-7)">
        <rect id="Rectangle_67" data-name="Rectangle 67" width="2.632" height="1.875" transform="translate(-1.004 6.114) rotate(-75.674)" fill="#152e60"/>
      </g>
    </g>
    <g id="Group_34" data-name="Group 34">
      <g id="Group_33" data-name="Group 33" clip-path="url(#clip-path)">
        <rect id="Rectangle_68" data-name="Rectangle 68" width="3.419" height="3.166" transform="translate(282.325 137.778) rotate(-75.673)" fill="#324d90"/>
        <rect id="Rectangle_69" data-name="Rectangle 69" width="0.762" height="3.166" transform="translate(282.494 137.115) rotate(-75.669)" fill="#152e60"/>
        <rect id="Rectangle_70" data-name="Rectangle 70" width="0.762" height="3.166" transform="translate(282.813 135.864) rotate(-75.669)" fill="#152e60"/>
        <path id="Path_116" data-name="Path 116" d="M2018.661,948.246l-.089.348-3.067-.783a1.6,1.6,0,1,1,3.156.435" transform="translate(-1732.334 -813.345)" fill="#fff"/>
        <path id="Path_117" data-name="Path 117" d="M1864.868,1100.157c-29.231.076-19.894,3.588-21.429-31.817h25.485V1096.1a4.056,4.056,0,0,1-4.056,4.056" transform="translate(-1584.216 -918.243)" fill="#fff"/>
        <rect id="Rectangle_71" data-name="Rectangle 71" width="8.421" height="25.714" transform="translate(261.486 124.383)" fill="#bedbfa"/>
        <rect id="Rectangle_72" data-name="Rectangle 72" width="3.2" height="1.215" transform="translate(261.486 127.763)" fill="#dcecfd"/>
        <rect id="Rectangle_73" data-name="Rectangle 73" width="3.2" height="1.215" transform="translate(261.486 130.539)" fill="#dcecfd"/>
        <rect id="Rectangle_74" data-name="Rectangle 74" width="3.2" height="1.215" transform="translate(261.486 133.315)" fill="#dcecfd"/>
        <rect id="Rectangle_75" data-name="Rectangle 75" width="3.2" height="1.215" transform="translate(261.486 136.09)" fill="#dcecfd"/>
        <rect id="Rectangle_76" data-name="Rectangle 76" width="3.2" height="1.215" transform="translate(261.486 138.866)" fill="#dcecfd"/>
        <rect id="Rectangle_77" data-name="Rectangle 77" width="3.2" height="1.215" transform="translate(261.486 141.641)" fill="#dcecfd"/>
        <rect id="Rectangle_78" data-name="Rectangle 78" width="3.2" height="1.215" transform="translate(261.486 144.417)" fill="#dcecfd"/>
        <rect id="Rectangle_79" data-name="Rectangle 79" width="3.2" height="1.215" transform="translate(261.486 147.193)" fill="#dcecfd"/>
        <rect id="Rectangle_80" data-name="Rectangle 80" width="1.345" height="24.282" transform="translate(268.562 125.816)" fill="#fff"/>
        <rect id="Rectangle_81" data-name="Rectangle 81" width="25.485" height="3.06" transform="translate(259.223 154.534)" fill="#bedbfa"/>
        <rect id="Rectangle_82" data-name="Rectangle 82" width="25.485" height="3.06" transform="translate(259.223 160.093)" fill="#bedbfa"/>
        <path id="Path_118" data-name="Path 118" d="M166.693,508.552s19.833,43.622,24.16,75.194h4.471s-9.186-42.314-28.631-75.194" transform="translate(-143.273 -437.102)" fill="#fff"/>
        <path id="Path_119" data-name="Path 119" d="M26.126,415.247s-5.052-3.508,0-11.788c6.732-20.645-37.212-8.116-23.435,26.242l8.42-7.858c-10.21,16.04-4.472,20.384,1.965,34.381l6.6-6.174s-4.631,8.139-4.491,9.121,9.963,14.173,9.963,14.173,20.769-29.188,21.049-30.732-11.647-11.928-11.647-11.928l13.893,9.4c1.662-6.841,10.265-32.2-7.718-34.521,0,0,6.315.421,9.823,2.526,0,0-1.263-13.051-11.367-11.928s-8.42,7.3-8.7,11.367-4.35,7.718-4.35,7.718" transform="translate(0 -338.173)" fill="#bedbfa"/>
        <path id="Path_120" data-name="Path 120" d="M410.684,338.052s-2.77-2.523-1.231-5.847c6.9-18.851-22.517-20.187-21.111,12.494l7.817-2.585s-6.524,5.355-6.709,8.678,9.663,24.189,9.663,24.189l4.37-5.232s-2.462,6.77-2.216,7.755,8.309,10.217,8.309,10.217,9.663-13.479,9.725-14.526-5.786-8.186-5.786-8.186l8.248,5.663s10.586-13.972,10.525-16.434-9.663-9.909-9.663-9.909l10.586,5.662s.985-9.725-.985-14.218l-9.171-3.693,8.678,2.031s-3.755-13.295-8-14.033-11.387,8.186-11.264,12.187-1.785,5.786-1.785,5.786" transform="translate(-333.739 -274.094)" fill="#bedbfa"/>
        <path id="Path_121" data-name="Path 121" d="M338.657,537.915s4.116-49.6,29.365-82.686c0,0-22.735,46.608-24.894,82.686Z" transform="translate(-291.077 -391.271)" fill="#fff"/>
        <path id="Path_122" data-name="Path 122" d="M215.586,1043.758H192.8l6.66,32.034A3.613,3.613,0,0,0,203,1078.67h25.177a3.613,3.613,0,0,0,3.538-2.878l6.66-32.034Z" transform="translate(-165.712 -897.114)" fill="#bedbfa"/>
        <path id="Path_123" data-name="Path 123" d="M2113.656,1205.079h-2.9l9.04-15.068h2.9Z" transform="translate(-1814.205 -1022.819)" fill="#f08f3c"/>
        <path id="Path_124" data-name="Path 124" d="M2264.928,1205.079h2.9l-9.04-15.068h-2.9Z" transform="translate(-1938.945 -1022.819)" fill="#f08f3c"/>
        <path id="Path_125" data-name="Path 125" d="M2126.089,880.92l-2.175,1.137-5.408-10.344a1.227,1.227,0,1,1,2.175-1.137Z" transform="translate(-1820.744 -747.698)" fill="#324d90"/>
        <path id="Path_126" data-name="Path 126" d="M2115.316,878.472c-3.841-7.264-14.905-1.473-11.132,5.821Z" transform="translate(-1807.89 -752.177)" fill="#f08f3c"/>
      </g>
    </g>
    <g id="Group_36" data-name="Group 36" transform="translate(295.521 122.952)">
      <g id="Group_35" data-name="Group 35" clip-path="url(#clip-path-9)">
        <path id="Path_127" data-name="Path 127" d="M2103.653,871.238s-3.332,6.369-8.972,9.238c-4.268-7.068,4.152-10.512,8.972-9.238" transform="translate(-2094.902 -871.56)" fill="#f9ce68"/>
      </g>
    </g>
    <g id="Group_38" data-name="Group 38">
      <g id="Group_37" data-name="Group 37" clip-path="url(#clip-path)">
        <path id="Path_129" data-name="Path 129" d="M2297.934,872.323l-2.342-.734,3.49-11.138a1.227,1.227,0,1,1,2.342.734Z" transform="translate(-1973.07 -738.821)" fill="#324d90"/>
        <path id="Path_130" data-name="Path 130" d="M2284.266,876.389c2.421-7.852-9.5-11.581-11.987-3.756Z" transform="translate(-1953.033 -746.315)" fill="#f08f3c"/>
      </g>
    </g>
    <g id="Group_40" data-name="Group 40" transform="translate(319.246 121.994)">
      <g id="Group_39" data-name="Group 39" clip-path="url(#clip-path-11)">
        <path id="Path_131" data-name="Path 131" d="M2281.4,863.308s-6.859,2.148-12.876.189c1.979-8.016,10.369-4.5,12.876-.189" transform="translate(-2269.052 -860.049)" fill="#f9ce68"/>
      </g>
    </g>
    <g id="Group_42" data-name="Group 42">
      <g id="Group_41" data-name="Group 41" clip-path="url(#clip-path)">
        <path id="Path_133" data-name="Path 133" d="M2111.829,960.808c-28.605-.513-28.6-43.024,0-43.532,28.6.513,28.6,43.024,0,43.532" transform="translate(-1796.687 -788.402)" fill="#f08f3c"/>
        <path id="Path_134" data-name="Path 134" d="M2092.817,960.808c-28.605-.513-28.6-43.024,0-43.532,28.6.513,28.6,43.024,0,43.532" transform="translate(-1780.346 -788.402)" fill="#f9ce68"/>
        <path id="Path_135" data-name="Path 135" d="M2132.274,964.044c-.4,23.574-35.469,23.571-35.868,0,.4-23.573,35.469-23.57,35.868,0" transform="translate(-1801.869 -813.404)" fill="#fff"/>
      </g>
    </g>
    <g id="Group_47" data-name="Group 47" transform="translate(294.537 132.96)">
      <g id="Group_46" data-name="Group 46" clip-path="url(#clip-path-13)">
        <g id="Group_45" data-name="Group 45" transform="translate(-3.352 -0.255)" opacity="0.67">
          <g id="Group_44" data-name="Group 44">
            <g id="Group_43" data-name="Group 43" clip-path="url(#clip-path-14)">
              <path id="Path_136" data-name="Path 136" d="M2103.866,944.552c9.791,22.274-15.494,35.415-31.314,23.521,14.85,35.431,63.7,3.278,31.314-23.521" transform="translate(-2072.552 -944.552)" fill="#dcecfd"/>
            </g>
          </g>
        </g>
      </g>
    </g>
    <g id="Group_49" data-name="Group 49">
      <g id="Group_48" data-name="Group 48" clip-path="url(#clip-path)">
        <path id="Path_138" data-name="Path 138" d="M2219.873,985.759l-1.461,8.453,1.461,3,1.461-3Z" transform="translate(-1906.733 -847.264)" fill="#324d90"/>
        <path id="Path_139" data-name="Path 139" d="M2243.816,1074.509l-4.526-3.328-2.326.663,1.267,2.061Z" transform="translate(-1922.679 -920.684)" fill="#324d90"/>
        <path id="Path_140" data-name="Path 140" d="M2216.641,1056.837a2.379,2.379,0,0,1-4.757,0,2.379,2.379,0,0,1,4.757,0" transform="translate(-1901.123 -906.341)" fill="#152e60"/>
        <path id="Path_141" data-name="Path 141" d="M2130.443,991.163c-.276-.008-.554-.026-.826-.047l.108-1.4c.243.019.49.033.737.043-.023.339-.026,1.061-.019,1.4m2.685-.231-.24-1.384c.242-.042.485-.091.722-.145l.312,1.37c-.261.059-.528.113-.794.159m-6.154-.2c-.262-.058-.526-.122-.782-.191l.365-1.357c.236.063.478.123.719.176Zm9.514-.781-.544-1.3c.225-.094.45-.2.67-.3l.611,1.265c-.241.117-.49.229-.737.332m-12.828-.318c-.245-.112-.49-.231-.728-.355l.65-1.246c.216.113.439.221.662.323Zm15.881-1.391-.819-1.142c.2-.142.4-.292.587-.445l.877,1.1c-.21.168-.427.332-.645.489m-18.88-.425c-.213-.167-.424-.341-.626-.518l.927-1.057c.182.16.372.317.565.468Zm21.478-1.919-1.052-.932c.163-.183.323-.373.475-.564l1.1.877c-.167.209-.343.418-.521.619m-23.962-.562c-.167-.212-.329-.432-.484-.654l1.152-.805c.14.2.287.4.438.591Zm25.978-2.3-1.232-.675c.118-.214.231-.435.338-.656l1.266.61c-.117.242-.242.485-.371.721m-27.8-.694c-.113-.244-.22-.494-.32-.744l1.305-.521c.091.227.188.455.291.677Zm29.131-2.548-1.352-.383c.066-.234.128-.474.182-.713l1.37.311c-.06.263-.127.527-.2.785m-30.235-.772c-.057-.262-.107-.53-.15-.794l1.386-.227c.04.242.086.486.137.725Zm30.8-2.682-1.4-.072c.013-.255.019-.516.019-.773h1.405c0,.281-.006.565-.02.845m-29.768-.792h-1.405c0-.267.006-.538.019-.806l1.4.066c-.012.246-.017.495-.017.74m28.168-2.495c-.042-.242-.092-.485-.146-.722l1.369-.315c.06.26.114.527.161.793Zm-27.836-.686-1.374-.292c.056-.264.119-.528.188-.786l1.358.361c-.063.235-.12.477-.171.718m26.936-2.369c-.095-.224-.2-.45-.3-.669l1.264-.613c.118.241.23.489.334.736Zm-25.936-.66-1.278-.585c.112-.245.232-.489.356-.727l1.245.652c-.113.216-.222.438-.323.66m24.375-2.115c-.142-.2-.292-.4-.445-.586l1.1-.879c.168.21.333.427.49.644Zm-22.728-.6-1.108-.864c.166-.213.34-.424.517-.626l1.058.925c-.16.183-.317.373-.467.566m20.59-1.759c-.184-.162-.374-.322-.565-.474l.875-1.1c.21.167.419.342.62.52Zm-18.352-.488-.868-1.1c.211-.166.431-.329.652-.484l.806,1.151c-.2.14-.4.287-.59.437m15.742-1.342c-.216-.117-.437-.231-.656-.336l.608-1.267c.242.116.485.24.721.37Zm-13.029-.31-.587-1.277c.242-.111.492-.219.744-.319l.52,1.305c-.228.091-.456.189-.677.29m10.077-.892c-.235-.066-.475-.127-.714-.18l.309-1.371c.262.059.526.126.785.2Zm-7.048-.12-.306-1.371c.26-.058.525-.111.789-.157l.244,1.384c-.243.043-.488.092-.727.145m3.9-.391c-.234-.011-.473-.018-.71-.017h0c0-.028-.056-1.373-.056-1.4.278-.005.56.005.836.017Z" transform="translate(-1817.745 -825.03)" fill="#324d90"/>
      </g>
    </g>
  </g>
</svg>
